<?xml version="1.0" encoding="UTF-8"?>
<svg id="_레이어_1" data-name="레이어 1" xmlns="http://www.w3.org/2000/svg" width="1329.1" height="564.92" viewBox="0 0 1329.1 564.92">
  <defs>
    <style>
      .cls-1, .cls-2 {
        fill: #fff;
      }

      .cls-2 {
        font-family: HelveticaNeue, 'Helvetica Neue';
        font-size: 250px;
      }
    </style>
  </defs>
  <polygon class="cls-1" points="161.72 150.7 136.76 150.7 136.76 163.71 123.77 163.71 123.77 176.7 111.77 176.7 111.77 188.44 59.76 188.44 59.76 176.72 46.74 176.72 46.74 163.73 33.72 163.73 33.72 86.66 46.77 86.66 46.77 73.69 59.73 73.69 59.73 61.69 111.76 61.69 111.76 73.67 123.77 73.67 123.77 86.65 136.75 86.65 136.75 99.72 160.73 99.72 160.73 74.7 147.75 74.7 147.75 62.7 135.74 62.7 135.74 49.72 122.72 49.72 122.72 36.44 47.78 36.44 47.78 49.75 35.74 49.75 35.74 62.72 22.79 62.72 22.79 74.7 9.77 74.7 9.77 175.6 22.75 175.6 22.75 187.67 35.78 187.67 35.78 200.66 47.74 200.66 47.74 213.69 122.58 213.69 122.58 200.64 135.75 200.64 135.75 187.66 147.75 187.66 147.75 175.66 161.72 175.66 161.72 150.7"/>
  <path class="cls-1" d="M325.73,131.71v-13.01h13.01V62.72h-12.99v-12.02h-13v-12.97h-101.56v.03h-11.44V214.71h23.98v-70h65.02v12.99h13.01v12.98h12.99v44.03h23.97v-55.95h-12.99v-13.03h-13.01v-12.03h-.07v-1.98h13.06ZM223.75,61.67h78.04v13.04h12.99v33h-13.01v13h-78.01V61.67Z"/>
  <path class="cls-1" d="M676.41,360.42v-13.01h13.01v-55.98h-12.99v-12.02h-13v-12.97h-101.56v.03h-11.44v176.95h23.98v-70h65.02v12.99h13.01v12.98h12.99v44.03h23.97v-55.95h-12.99v-13.03h-13.01v-12.03h-.07v-1.98h13.06Zm-101.99-70.04h78.04v13.04h12.99v33h-13.01v13h-78.01v-59.04Z"/>
  <path class="cls-1" d="M335.76,303.7h-13.05v-12.98h-12.06v-13.01h-13.94v-12.94h-76.9v12.94h-13.95v13.01h-12.06v12.98h-13.05v103.01h13.01v12.99h12.11v12.98h13.92v13.02h76.9v-13.02h13.96v-12.98h12.11v-12.99h13.01v-103.01Zm-36.95,104.08h-14.02v13.06h-53.07v-13.06h-14.02v-12.06h-13.01v-81.02h13.05v-12.09h14v-12.98h53.01v12.98h14v12.09h13.05v81.02h-13.01v12.06Z"/>
  <polygon class="cls-1" points="998.71 315.67 998.71 264.75 973.88 264.75 973.88 305.13 973.88 315.67 973.88 317.74 960.84 317.74 960.84 358.12 960.84 368.66 960.84 368.7 947.78 368.7 947.78 406.76 934.71 406.76 934.71 368.7 921.64 368.7 921.64 368.66 921.64 358.12 921.64 317.74 908.61 317.74 908.61 315.67 908.61 305.13 908.61 264.75 883.78 264.75 883.78 264.76 869.93 264.76 869.93 305.14 869.93 315.68 869.93 317.75 856.89 317.75 856.89 358.12 856.89 368.67 856.89 368.71 843.83 368.71 843.83 406.77 830.76 406.77 830.76 368.71 817.69 368.71 817.69 368.67 817.69 358.12 817.69 317.75 804.66 317.75 804.66 315.68 804.66 305.14 804.66 264.76 779.83 264.76 779.83 315.68 791.78 315.68 791.78 323.46 791.8 323.46 791.8 368.67 804.81 368.67 804.81 368.71 804.81 368.71 804.81 419.63 817.84 419.63 817.84 445.5 856.66 445.5 856.66 419.63 869.78 419.63 869.78 368.71 869.77 368.71 869.77 368.67 882.83 368.67 882.83 317.75 882.81 317.75 882.81 315.68 894.76 315.68 894.76 315.67 895.73 315.67 895.73 323.46 895.75 323.46 895.75 368.66 908.76 368.66 908.76 368.7 908.76 368.7 908.76 419.62 921.79 419.62 921.79 445.49 960.61 445.49 960.61 419.62 973.73 419.62 973.73 368.7 973.72 368.7 973.72 368.66 986.78 368.66 986.78 317.74 986.76 317.74 986.76 315.67 998.71 315.67"/>
  <text class="cls-2" transform="translate(352.89 214.55)"><tspan x="0" y="0">A</tspan></text>
  <text class="cls-2" transform="translate(0 444.53)"><tspan x="0" y="0">Y</tspan></text>
  <text class="cls-2" transform="translate(351.76 444.58)"><tspan x="0" y="0">U</tspan></text>
  <text class="cls-2" transform="translate(1004.85 444.67)"><tspan x="0" y="0">A</tspan></text>
  <text class="cls-2" transform="translate(1167.1 444.48)"><tspan x="0" y="0">Y</tspan></text>
  <text class="cls-2" transform="translate(657.85 214.25)"><tspan x="0" y="0">T</tspan></text>
  <text class="cls-2" transform="translate(515.02 214.25)"><tspan x="0" y="0">F</tspan></text>
</svg>