<?xml version="1.0" encoding="UTF-8"?>
<svg id="_레이어_1" data-name="레이어 1" xmlns="http://www.w3.org/2000/svg" width="296.94" height="125.8" viewBox="0 0 296.94 125.8">
  <defs>
    <style>
      .cls-1 {
        fill: none;
        stroke: #fff;
        stroke-linecap: round;
        stroke-linejoin: round;
        stroke-width: 2px;
      }
    </style>
  </defs>
  <path class="cls-1" d="M63.85,103.95s8.56,6.68,37.27,4.42l.23-12.4c.04-2.36,.96-4.62,2.6-6.33,4.18-4.35,12.34-9.81,29.41,1.41"/>
  <path class="cls-1" d="M100.91,108.02s22.21,32.96,24.17,6.51c.03-.36,.5-.46,.66-.14,2.17,4.29,10.08,17.48,18.02,.69,.32-.67,1.16-.89,1.76-.46,3.04,2.19,11.82,6.36,21.31-8.78,.74-1.17,2.01-1.9,3.4-1.91l104.65-.47c2.74-.01,5.44-.63,7.91-1.82,3.45-1.65,8.22-4.43,11.32-8.27,3.15-3.9,.64-9.83-4.36-10.31-.08,0-.16-.01-.24-.02h-54.4s-23.73-.84-28.54-14.64c-1.03-2.97-.82-6.27,.93-8.88,1.99-2.96,6.12-5.65,14.49-1.64,.92,.44,2-.11,2.16-1.11,.8-4.9,4.09-15.96,16.9-6.37,1.07,.8,2.47,.99,3.69,.47l37.13-15.8c3.52-1.5,6.84-3.47,9.76-5.95,4.11-3.5,7.48-7.95-.76-8.74-2.25-.21-4.51-.05-6.73,.37l-42.72,8.19c-1.22,.23-2.48-.03-3.52-.7-4.39-2.83-17.34-9.53-28.31,1.43-1.13,1.13-2.9,1.27-4.18,.33-4.78-3.51-16.55-9.49-27.79,5.52-1.32,1.76-3.67,2.4-5.68,1.49-11.22-5.1-48.01-18.75-89.47-1.17-4.25,1.8-9.15,1.75-13.15-.55-2.58-1.49-4.78-3.8-4.94-7.39-.14-3.35,1.65-6.48,4.44-8.33L92.9,3.62s2.45-3.65-3.1-2.33c-4.27,1.01-38.63,14.96-54.34,21.38-9.37,3.83-17.77,9.79-24.17,17.64-9.66,11.86-17.07,30.32-.47,52.74,.54,.72,.85,1.58,.89,2.48,.25,6.06,2.24,29.87,17.93,16.9,.65-.53,1.6-.53,2.21,.05,2.56,2.38,9.18,7.22,12.43-2.65,.25-.76,1.16-1.07,1.8-.6,3.08,2.27,10.83,6.83,15.79-.21,1.34-1.91,2-4.22,2.05-6.55l.34-14.36c.12-5.07-2.92-9.79-7.7-11.48-3.89-1.37-9.73-1.8-18.46,.11"/>
</svg>